<?xml version="1.0" encoding="utf-8"?>
<!-- Generator: Adobe Illustrator 26.5.0, SVG Export Plug-In . SVG Version: 6.00 Build 0)  -->
<svg version="1.1" id="Camada_1" xmlns="http://www.w3.org/2000/svg" xmlns:xlink="http://www.w3.org/1999/xlink" x="0px" y="0px"
	 viewBox="0 0 140 119.7" style="enable-background:new 0 0 140 119.7;" xml:space="preserve">
<style type="text/css">
	.st0{fill:#FFFFFF;}
</style>
<path class="st0" d="M73.3,11.4l-3,3.3L67,11.4c-9.2-8.9-21.8-13-34.3-10.9C13.8,3.7,0,20,0,39.1v1.6C0,52,4.7,62.9,13,70.6
	l49.4,46.1c2.1,1.9,4.8,3,7.6,3s5.5-1.1,7.6-3L127,70.6c8.3-7.7,13-18.6,13-29.9v-1.6c0-19.1-13.8-35.4-32.6-38.6
	C95.1-1.5,82.2,2.5,73.3,11.4z"/>
</svg>
