<?xml version="1.0" encoding="utf-8"?>
<!-- Generator: Adobe Illustrator 26.5.0, SVG Export Plug-In . SVG Version: 6.00 Build 0)  -->
<svg version="1.1" id="Camada_1" xmlns="http://www.w3.org/2000/svg" xmlns:xlink="http://www.w3.org/1999/xlink" x="0px" y="0px"
	 viewBox="0 0 91 76" style="enable-background:new 0 0 91 76;" xml:space="preserve">
<style type="text/css">
	.st0{fill:none;}
	.st1{fill:#004F63;}
	.st2{fill:#FFFFFF;}
	.st3{opacity:0.74;fill:#FFFFFF;}
</style>
<g>
	<path class="st0" d="M91,76V45.5c0,11.7-4.5,22.4-11.8,30.5H91z"/>
	<path class="st0" d="M0,76h11.8C4.5,67.9,0,57.2,0,45.5V76z"/>
	<path class="st0" d="M0,0v45.5C0,20.4,20.4,0,45.5,0S91,20.4,91,45.5V0H0z"/>
	<path class="st1" d="M45.5,1C21,1,1,21,1,45.5C1,57.3,5.6,68,13.1,76h64.7C85.4,68,90,57.3,90,45.5C90,21,70,1,45.5,1z M40.1,58.4
		c0,1.9-1.5,3.4-3.4,3.4h-4.8c-0.1,0-0.3,0-0.4,0c-0.1,0-0.2,0-0.3,0h-1.4c-1.9,0-3.4-1.5-3.4-3.4v-0.8l13.6-6.7V58.4z M45.5,42.7
		L26.4,52v-3.2c0-0.1,0-0.2,0-0.2v-6h-2.7c-0.3,0-0.6,0-0.9-0.1l22.6-11.1v0h0V42.7z M45.5,26.1L22.2,37.5l21.4-18.8
		c0.6-0.6,1.2-0.7,1.8-0.7V26.1z M64.6,58.4c0,1.9-1.5,3.4-3.4,3.4h-1.4c-0.1,0-0.2,0-0.3,0c-0.1,0-0.2,0-0.4,0h-4.8
		c-1.9,0-3.4-1.5-3.4-3.4v-2.1v-5.4l13.6,6.7V58.4z M67.3,42.6h-2.7l0,9.4l-19.1-9.3V31.4h0v0l22.6,11.1
		C67.8,42.6,67.6,42.6,67.3,42.6z M45.5,26.1V18c0,0,0,0,0,0c0.6,0,1.3,0.2,1.8,0.6l21.2,18.8L45.5,26.1z"/>
	<path class="st2" d="M45.5,0C20.4,0,0,20.4,0,45.5C0,57.2,4.5,67.9,11.8,76h1.4C5.6,68,1,57.3,1,45.5C1,21,21,1,45.5,1
		C70,1,90,21,90,45.5C90,57.3,85.4,68,77.9,76h1.4C86.5,67.9,91,57.2,91,45.5C91,20.4,70.6,0,45.5,0z"/>
	<path class="st1" d="M26.4,58.4c0,1.9,1.5,3.4,3.4,3.4h1.4c0.1,0,0.2,0,0.3,0c0.1,0,0.3,0,0.4,0h4.8c1.9,0,3.4-1.5,3.4-3.4v-7.5
		l-13.6,6.7V58.4z"/>
	<path class="st3" d="M26.4,58.4c0,1.9,1.5,3.4,3.4,3.4h1.4c0.1,0,0.2,0,0.3,0c0.1,0,0.3,0,0.4,0h4.8c1.9,0,3.4-1.5,3.4-3.4v-7.5
		l-13.6,6.7V58.4z"/>
	<path class="st1" d="M22.2,37.5l23.3-11.4V18c-0.6,0-1.3,0.1-1.8,0.7L22.2,37.5z"/>
	<path class="st3" d="M22.2,37.5l23.3-11.4V18c-0.6,0-1.3,0.1-1.8,0.7L22.2,37.5z"/>
	<path class="st1" d="M45.5,31.4L22.9,42.5c0.3,0.1,0.6,0.1,0.9,0.1h2.7v6c0,0.1,0,0.2,0,0.2V52l19.1-9.3L45.5,31.4L45.5,31.4
		L45.5,31.4z"/>
	<path class="st3" d="M45.5,31.4L22.9,42.5c0.3,0.1,0.6,0.1,0.9,0.1h2.7v6c0,0.1,0,0.2,0,0.2V52l19.1-9.3L45.5,31.4L45.5,31.4
		L45.5,31.4z"/>
	<path class="st2" d="M50.9,56.4v2.1c0,1.9,1.5,3.4,3.4,3.4h4.8c0.1,0,0.2,0,0.4,0c0.1,0,0.2,0,0.3,0h1.4c1.9,0,3.4-1.5,3.4-3.4
		v-0.8l-13.6-6.7V56.4z"/>
	<path class="st2" d="M45.5,31.4L45.5,31.4l0,11.3l19.1,9.3l0-9.4h2.7c0.3,0,0.6-0.1,0.9-0.1L45.5,31.4L45.5,31.4z"/>
	<path class="st2" d="M45.5,18C45.5,18,45.5,18,45.5,18l0,8.1l23.1,11.3L47.3,18.6C46.8,18.2,46.1,18,45.5,18z"/>
</g>
</svg>
