<svg width="152" height="134" viewBox="0 0 152 134" fill="none" xmlns="http://www.w3.org/2000/svg">
<path d="M16.8904 123.531C16.8904 129.315 21.6144 134 27.4469 134H31.6694C31.9861 134 32.3028 133.974 32.6195 133.948C33.0154 133.974 33.4113 134 33.8071 134H48.5598C54.3922 134 59.1163 129.315 59.1163 123.531V100.61L16.8904 120.969V123.531Z" fill="white" fill-opacity="0.74"/>
<path d="M75.996 0C74.175 0.0104687 72.1139 0.298359 70.3061 2.09375L3.79504 59.5881L75.996 24.7769V0Z" fill="white" fill-opacity="0.74"/>
<path d="M75.996 41.0114H75.9459V41.0611L5.7876 74.8647C6.61892 75.129 7.51094 75.2703 8.44519 75.2703H16.9168V93.486C16.8904 93.7215 16.8904 93.9832 16.8904 94.2188V104.07L75.996 75.5347V41.0114Z" fill="white" fill-opacity="0.74"/>
<path d="M92.897 117.25V123.531C92.897 129.315 97.621 134 103.453 134H118.364C118.734 134 119.103 134 119.473 133.974C119.763 134 120.053 134 120.344 134H124.566C130.399 134 135.123 129.315 135.123 123.531V120.977L92.897 100.62V117.25Z" fill="white"/>
<path d="M76.0541 40.9669H76.004V75.5085L135.197 104.08L135.07 75.2703H143.515C144.428 75.2703 145.32 75.1159 146.162 74.8307L76.0541 41.0166V40.9669Z" fill="white"/>
<path d="M76.1122 0C76.0752 0 76.0383 0 76.004 0V24.7769L147.545 59.2688L81.6543 1.83203C80.0708 0.523438 77.9596 0 76.1122 0Z" fill="white"/>
</svg>
